<svg width="96" height="120" xmlns="http://www.w3.org/2000/svg">
 <title>Artboard 87</title>

 <g>
  <title>background</title>
  <rect fill="none" id="canvas_background" height="402" width="582" y="-1" x="-1"/>
 </g>
 <g>
  <title>Layer 1</title>
  <path fill="#ffffff" id="svg_1" d="m30.92,80a2,2 0 0 1 -1.59,-3.22a11.3,11.3 0 0 1 2.88,-2.45c1.68,-1.11 2.69,-1.78 2.4,-4.36c-11.34,-4.61 -18.61,-14.58 -18.61,-25.69c0,-15.59 14.36,-28.28 32,-28.28s32,12.69 32,28.28s-14.36,28.28 -32,28.28l-0.88,0c-1.84,3.88 -6.31,5.9 -15.89,7.43l-0.31,0.01zm17.08,-60c-15.44,0 -28,10.89 -28,24.28c0,9.77 6.71,18.55 17.09,22.37a2,2 0 0 1 1.27,1.47c0.6,3 0.21,4.95 -0.6,6.38c4.22,-1.25 5.55,-2.71 6.07,-4.56a2,2 0 0 1 2.06,-1.46c0.8,0.06 1.47,0.08 2.11,0.08c15.44,0 28,-10.89 28,-24.28s-12.56,-24.28 -28,-24.28z"/>
 </g>
</svg>